<svg xmlns="http://www.w3.org/2000/svg" viewBox="0 0 64 64" role="img" aria-label="Madrid flag icon">
  <rect width="64" height="64" rx="14" fill="#C60B1E"/>
  <g fill="#FFFFFF">
    <polygon points="14,15.4 15.8,19 19.8,19.6 16.9,22.4 17.6,26.4 14,24.5 10.4,26.4 11.1,22.4 8.2,19.6 12.2,19"/>
    <polygon points="27,15.4 28.8,19 32.8,19.6 29.9,22.4 30.6,26.4 27,24.5 23.4,26.4 24.1,22.4 21.2,19.6 25.2,19"/>
    <polygon points="40,15.4 41.8,19 45.8,19.6 42.9,22.4 43.6,26.4 40,24.5 36.4,26.4 37.1,22.4 34.2,19.6 38.2,19"/>
    <polygon points="53,15.4 54.8,19 58.8,19.6 55.9,22.4 56.6,26.4 53,24.5 49.4,26.4 50.1,22.4 47.2,19.6 51.2,19"/>
    <polygon points="20.5,32.4 22.3,36 26.3,36.6 23.4,39.4 24.1,43.4 20.5,41.5 16.9,43.4 17.6,39.4 14.7,36.6 18.7,36"/>
    <polygon points="32,32.4 33.8,36 37.8,36.6 34.9,39.4 35.6,43.4 32,41.5 28.4,43.4 29.1,39.4 26.2,36.6 30.2,36"/>
    <polygon points="43.5,32.4 45.3,36 49.3,36.6 46.4,39.4 47.1,43.4 43.5,41.5 39.9,43.4 40.6,39.4 37.7,36.6 41.7,36"/>
  </g>
</svg>